inDegrees=no
DataType=double
version=3
OpenSimVersion=4.4-2022-10-11-798caa840
endheader
time	elv_angle	shoulder_elv	shoulder_rot	elbow_flexion	pro_sup	deviation	flexion
2.4020851434	0.4163924158	1.4545234442	0.4363323152	2.0377085209	0.0000000000	0.0000000000	0.0000000000
2.4062554301	0.4163924158	1.4545234442	0.4363323152	2.0377085209	0.0000000000	0.0000000000	0.0000000000
2.4104257168	0.4163924158	1.4545234442	0.4363323152	2.0377085209	0.0000000000	0.0000000000	0.0000000000
2.4145960035	0.4163924158	1.4545234442	0.4363323152	2.0377085209	0.0000000000	0.0000000000	0.0000000000
2.4187662902	0.4163924158	1.4545234442	0.4363323152	2.0377085209	0.0000000000	0.0000000000	0.0000000000
2.4229365769	0.4163924158	1.4545234442	0.4363323152	2.0377085209	0.0000000000	0.0000000000	0.0000000000
2.4271068636	0.4163924158	1.4545234442	0.4363323152	2.0377085209	0.0000000000	0.0000000000	0.0000000000
2.4312771503	0.4163924158	1.4545234442	0.4363323152	2.0377085209	0.0000000000	0.0000000000	0.0000000000
2.4354474370	0.4163924158	1.4545234442	0.4363323152	2.0377085209	0.0000000000	0.0000000000	0.0000000000
2.4396177237	0.4163924158	1.4545234442	0.4363323152	2.0377085209	0.0000000000	0.0000000000	0.0000000000
2.4437880104	0.4163924158	1.4545234442	0.4363323152	2.0377085209	0.0000000000	0.0000000000	0.0000000000
2.4479582971	0.4163924158	1.4545234442	0.4363323152	2.0377085209	0.0000000000	0.0000000000	0.0000000000
2.4521285838	0.4163924158	1.4545234442	0.4363323152	2.0377085209	0.0000000000	0.0000000000	0.0000000000
2.4562988705	0.4163924158	1.4545234442	0.4363323152	2.0377085209	0.0000000000	0.0000000000	0.0000000000
2.4604691573	0.4163924158	1.4545234442	0.4363323152	2.0377085209	0.0000000000	0.0000000000	0.0000000000
2.4646394440	0.4163924158	1.4545234442	0.4363323152	2.0377085209	0.0000000000	0.0000000000	0.0000000000
2.4688097307	0.4163924158	1.4545234442	0.4363323152	2.0377085209	0.0000000000	0.0000000000	0.0000000000
2.4729800174	0.4163924158	1.4545234442	0.4363323152	2.0377085209	0.0000000000	0.0000000000	0.0000000000
2.4771503041	0.4163924158	1.4545234442	0.4363323152	2.0377085209	0.0000000000	0.0000000000	0.0000000000
2.4813205908	0.4163924158	1.4545234442	0.4363323152	2.0377085209	0.0000000000	0.0000000000	0.0000000000
2.4854908775	0.4163924158	1.4545234442	0.4363323152	2.0377085209	0.0000000000	0.0000000000	0.0000000000
2.4896611642	0.4163924158	1.4545234442	0.4363323152	2.0377085209	0.0000000000	0.0000000000	0.0000000000
2.4938314509	0.4163924158	1.4545234442	0.4363323152	2.0377085209	0.0000000000	0.0000000000	0.0000000000
2.4980017376	0.4163924158	1.4545234442	0.4363323152	2.0377085209	0.0000000000	0.0000000000	0.0000000000
2.5021720243	0.4163924158	1.4545234442	0.4363323152	2.0377085209	0.0000000000	0.0000000000	0.0000000000
2.5063423110	0.4163924158	1.4545234442	0.4363323152	2.0377085209	0.0000000000	0.0000000000	0.0000000000
2.5105125977	0.4163924158	1.4545234442	0.4363323152	2.0377085209	0.0000000000	0.0000000000	0.0000000000
2.5146828844	0.4163924158	1.4545234442	0.4363323152	2.0377085209	0.0000000000	0.0000000000	0.0000000000
2.5188531712	0.4163924158	1.4545234442	0.4363323152	2.0377085209	0.0000000000	0.0000000000	0.0000000000
2.5230234579	0.4163924158	1.4545234442	0.4363323152	2.0377085209	0.0000000000	0.0000000000	0.0000000000
2.5271937446	0.4163924158	1.4545234442	0.4363323152	2.0377085209	0.0000000000	0.0000000000	0.0000000000
2.5313640313	0.4163924158	1.4545234442	0.4363323152	2.0377085209	0.0000000000	0.0000000000	0.0000000000
2.5355343180	0.4163924158	1.4545234442	0.4363323152	2.0377085209	0.0000000000	0.0000000000	0.0000000000
2.5397046047	0.4163924158	1.4545234442	0.4363323152	2.0377085209	0.0000000000	0.0000000000	0.0000000000
2.5438748914	0.4163924158	1.4545234442	0.4363323152	2.0377085209	0.0000000000	0.0000000000	0.0000000000
2.5480451781	0.4163924158	1.4545234442	0.4363323152	2.0377085209	0.0000000000	0.0000000000	0.0000000000
2.5522154648	0.4163924158	1.4545234442	0.4363323152	2.0377085209	0.0000000000	0.0000000000	0.0000000000
2.5563857515	0.4163924158	1.4545234442	0.4363323152	2.0377085209	0.0000000000	0.0000000000	0.0000000000
2.5605560382	0.4163924158	1.4545234442	0.4363323152	2.0377085209	0.0000000000	0.0000000000	0.0000000000
2.5647263249	0.4163924158	1.4545234442	0.4363323152	2.0377085209	0.0000000000	0.0000000000	0.0000000000
2.5688966116	0.4163924158	1.4545234442	0.4363323152	2.0377085209	0.0000000000	0.0000000000	0.0000000000
2.5730668983	0.4163924158	1.4545234442	0.4363323152	2.0377085209	0.0000000000	0.0000000000	0.0000000000
2.5772371851	0.4163924158	1.4545234442	0.4363323152	2.0377085209	0.0000000000	0.0000000000	0.0000000000
2.5814074718	0.4163924158	1.4545234442	0.4363323152	2.0377085209	0.0000000000	0.0000000000	0.0000000000
2.5855777585	0.4163924158	1.4545234442	0.4363323152	2.0377085209	0.0000000000	0.0000000000	0.0000000000
2.5897480452	0.4163924158	1.4545234442	0.4363323152	2.0377085209	0.0000000000	0.0000000000	0.0000000000
2.5939183319	0.4163924158	1.4545234442	0.4363323152	2.0377085209	0.0000000000	0.0000000000	0.0000000000
2.5980886186	0.4163924158	1.4545234442	0.4363323152	2.0377085209	0.0000000000	0.0000000000	0.0000000000
2.6022589053	0.4163924158	1.4545234442	0.4363323152	2.0377085209	0.0000000000	0.0000000000	0.0000000000
2.6064291920	0.4163924158	1.4545234442	0.4363323152	2.0377085209	0.0000000000	0.0000000000	0.0000000000
2.6105994787	0.4163924158	1.4545234442	0.4363323152	2.0377085209	0.0000000000	0.0000000000	0.0000000000
2.6147697654	0.4163924158	1.4545234442	0.4363323152	2.0377085209	0.0000000000	0.0000000000	0.0000000000
2.6189400521	0.4163924158	1.4545234442	0.4363323152	2.0377085209	0.0000000000	0.0000000000	0.0000000000
2.6231103388	0.4163924158	1.4545234442	0.4363323152	2.0377085209	0.0000000000	0.0000000000	0.0000000000
2.6272806255	0.4163924158	1.4545234442	0.4363323152	2.0377085209	0.0000000000	0.0000000000	0.0000000000
2.6314509123	0.4163924158	1.4545234442	0.4363323152	2.0377085209	0.0000000000	0.0000000000	0.0000000000
2.6356211990	0.4163924158	1.4545234442	0.4363323152	2.0377085209	0.0000000000	0.0000000000	0.0000000000
2.6397914857	0.4163924158	1.4545234442	0.4363323152	2.0377085209	0.0000000000	0.0000000000	0.0000000000
2.6439617724	0.4163924158	1.4545234442	0.4363323152	2.0377085209	0.0000000000	0.0000000000	0.0000000000
2.6481320591	0.4163924158	1.4545234442	0.4363323152	2.0377085209	0.0000000000	0.0000000000	0.0000000000
2.6523023458	0.4163924158	1.4545234442	0.4363323152	2.0377085209	0.0000000000	0.0000000000	0.0000000000
2.6564726325	0.4163943231	1.4545217752	0.4363323152	2.0377061367	0.0000000000	0.0000000000	0.0000000000
2.6606429192	0.4164075851	1.4545096159	0.4363323152	2.0376896858	0.0000000000	0.0000000000	0.0000000000
2.6648132059	0.4164429307	1.4544771910	0.4363323152	2.0376453400	0.0000000000	0.0000000000	0.0000000000
2.6689834926	0.4165105820	1.4544149637	0.4363323152	2.0375604630	0.0000000000	0.0000000000	0.0000000000
2.6731537793	0.4166201949	1.4543143511	0.4363323152	2.0374231339	0.0000000000	0.0000000000	0.0000000000
2.6773240660	0.4167809486	1.4541666508	0.4363323152	2.0372219086	0.0000000000	0.0000000000	0.0000000000
2.6814943527	0.4170013964	1.4539641142	0.4363323152	2.0369455814	0.0000000000	0.0000000000	0.0000000000
2.6856646394	0.4172896147	1.4536994696	0.4363323152	2.0365843773	0.0000000000	0.0000000000	0.0000000000
2.6898349262	0.4176532030	1.4533659220	0.4363323152	2.0361287594	0.0000000000	0.0000000000	0.0000000000
2.6940052129	0.4180991650	1.4529569149	0.4363323152	2.0355699062	0.0000000000	0.0000000000	0.0000000000
2.6981754996	0.4186341763	1.4524666071	0.4363323152	2.0348994732	0.0000000000	0.0000000000	0.0000000000
2.7023457863	0.4192643762	1.4518896341	0.4363323152	2.0341095924	0.0000000000	0.0000000000	0.0000000000
2.7065160730	0.4199953079	1.4512209892	0.4363323152	2.0331933498	0.0000000000	0.0000000000	0.0000000000
2.7106863597	0.4208323658	1.4504561424	0.4363323152	2.0321440697	0.0000000000	0.0000000000	0.0000000000
2.7148566464	0.4217802286	1.4495912790	0.4363323152	2.0309555531	0.0000000000	0.0000000000	0.0000000000
